<?xml version="1.0" encoding="UTF-8"?>
<svg id="Layer_2" data-name="Layer 2" xmlns="http://www.w3.org/2000/svg" viewBox="0 0 421.23 268.21">
  <g id="Layer_1-2" data-name="Layer 1">
    <path d="m421.23,250.96c-.27.13-.57.25-.81.4-1.55-6.33-2.08-12.37-4.24-18.22-2.55-6.94-4.69-14.08-7.77-20.78-4.76-10.38-10.13-20.49-15.58-30.53-.81-1.49-1.54-3.04-2.39-4.52-.94-1.64-2.39-3-3.41-4.6-.65-1.02-.93-2.27-1.37-3.42-.16.13-.31.26-.47.39-1.31-1.34-2.62-2.67-4.13-4.2q-.07-2.68-1.09-4.76c1.05-1.02,2.23-1.97,3.16-3.12,2.57-3.16,5.1-6.28,6.57-10.28.64-1.73-.61-2.69-.17-4.22,1.18-4.07,1.53-8.34,2.36-12.51,1.1-5.52-.81-11.02-1.04-16.56-.07-1.84-1.62-3.62-2.62-5.71-.51-2.41-.92-5.23-1.71-7.95-1.39-4.74-2.7-9.55-4.66-14.06-1.14-2.64-1.78-5.67-4.71-7.56-2.07-1.33-4.1-3.6-4.85-5.88-.99-2.98-2.73-5.55-3.37-7.63-1.39-1.26-2.74-1.89-2.86-2.69-.54-3.75-3.73-5.11-6.04-7.26-.67-.62-1.56-1.1-2.01-1.85-.88-1.47-1.44-3.08-2.68-4.41-1.05-1.12-2.5-1.61-3.44-2.93-.96-1.35-2.52-2.34-3.95-3.27-.88-.57-2.24-.49-2.99-1.15-2.41-2.1-4.33-4.8-7.68-5.66-.52-.13-1.1-.87-1.25-1.43-.38-1.41-1.15-2.01-2.57-2.43-1.12-.33-1.59-1.81-3.21-1.97-1.61-.17-3.23-1.05-4.65-1.94-1.75-1.09-3.22-2.64-4.97-3.74-1.52-.95-3.63-.36-5.12-1.27-3.35-2.05-7.18-2.51-10.8-2.76-3.54-.25-6.41-1.4-9.52-3.22-2.53.61-5.35-.1-7.71-1.18-3.01-1.37-5.99-1.92-8.98-1.77-.8-.8-1.39-1.39-2.15-2.15h-6.13c-.16-.63-.28-1.08-.45-1.71h-3.72c-4.62-2.74-9.24-2.84-13.87-3.36-.86-.9-1.78-1.86-2.68-2.8h-3.58c-1.64-.78-2.92-1.94-4.14-1.87-2.98.17-5.73-.76-8.59-1.14-1.22-.16-2.4-.6-3.68-.93-.29.27-.65.6-1.02.93-.34-.3-.69-.62-1.38-1.23-.49.79-.98,1.6-1.27,2.06-2.79-1.02-5.05-1.42-7.28.13-1.99-1.72-4.37-.81-6.56-.87-2.3-.06-4.67.76-6.9.43-2.42-.36-4.46,1.35-6.56.46-.81.81-1.4,1.4-1.92,1.92-1.93.61-4.06-.74-5.76.79-.75.67-1.32-1.33-2.24.04-.34.5-1.86.12-2.79.33-.89.2-1.73.92-2.59.92-2.62,0-4.86,1.02-7.18,2.02-2.74,1.18-5.48,2.55-8.25,2.03-5.07,2.97-10.64,2.94-15.58,4.72-.35-.27-.58-.46-.82-.64-.59.59-1.18,1.18-1.93,1.93-.65,0-1.57-.24-2.26.04-2.3.96-4.48,2.16-7.06,2.3-.58.03-1.35.28-1.67.7-1.67,2.2-4.19,2.77-6.58,3.47-3.44,1-6.55,3.48-9.95,2.51-1.84,1.15-3.39,2.93-4.76,2.81-3.8-.33-5.73,3.36-9.11,3.56-.79,2.08-3.2,1.14-4.5,2.44-2.58,2.6-5.86,4.23-8.9,6.21-.98.64-1.55,1.89-1.98,2.45-2.61,1.1-5.03,1.65-6.05,4.33-2.82-.19-4.47,2.16-6.6,3.32-1.86,1.02-4.09,1.74-5.34,4.28-.96,1.96-3.82,3.18-6.05,4.28-2.32,1.14-4.12,3-6.06,4.5-1.84,1.44-3.64,3.04-5.66,4.39v2.53c-.81.83-1.47,1.37-1.95,2.04-1.84,2.56-3.38,5.4-5.51,7.67-1.97,2.09-3.22,4.41-4.25,6.86.31.4.49.63.67.87-1.3,1.3-2.59,2.59-3.89,3.89-.2,1.29-.58,2.95-1.46,3.29-2,.77-1.98,2.38-2.62,3.58.48.62.73.94,1.2,1.56-3.59-.15-2.86,3.68-5.09,4.45.46.72.79,1.24,1.03,1.63-1.16,1.09-2.93,1.99-2.94,2.92-.04,2.36-1.61,2.85-3.1,3.62.3.35.6.7,1.05,1.23-1.07.58-2.76,1-2.86,1.64-.38,2.66-3.02,2.98-4.29,4.66-1.38,1.82-2.91,3.59-4.65,5.06-2.51,2.13-4.36,4.74-6.42,7.24-2.62,3.19-5.25,6.69-9.63,7.88-.09.3-.11.64-.28.88-.46.65-1.1,1.21-1.45,1.91-.28.56-.26,1.27-.53,2.89,3.63-3.06,6.89-4.45,10.63-3.78.94.94,1.67,1.89,2.61,2.56,1.78,1.27,3.66,2.39,5.52,3.56,1.71,1.08,2.36,3.11,4.12,4.27,1.91,1.26,3.36,3.21,5.01,4.86.35.35.86.64,1.04,1.07,1.7,4.14,5.4,5.29,9.18,6.67,1.75.64,3.76,1.49,5.05.74,2.66-1.55,5.62-.41,8.31-1.74,2.04-1.01,4.63.23,7.11-.94,1.99-.94,4.65-.61,7.03-1.01,4.11-.69,8.4.14,12.57-1.11,2.18-.65,4.38.58,6.57.86,5.38.7,10.3,2.43,15.59,5.87,1.53,1,3.25,1.71,4.88,2.56,1.29.64,2.21,2.05,3.49,2.57,5.37,2.17,10.09,5.45,15.05,8.32,3.37,1.95,7.01,3.43,10.01,6.01,2.99,2.57,6.96,3.45,10.13,5.72,1.13.81,2.42,1.39,3.64,2.06,5.26,2.85,10.06,6.41,14.89,9.92,1.82,1.32,4.05,2.5,5.11,4.31,1.15,1.96,2.88,2.91,4.53,3.62,3.34,1.44,5.6,4.2,8.34,6.29,2.13,1.62,3.98,3.65,6.34,5.13,2.81,1.76,5.42,3.82,8.24,5.83h2.01c1.88,1.93,3.15,3.63,4.78,4.81,2.11,1.53,4.86,2.18,5.85,5.08.18.53,1.35.67,1.98,1.1,1.31.9,2.5,1.98,3.85,2.79,1.72,1.02,3.55,1.84,5.49,2.82.66,2.59,3.42,3.08,5.51,4.23,4.18,2.31,9.14,2.98,13.23,6.07,5-.68,10.2,2.96,15.15.12,1.28.32,2.32.79,3.37.82,2.89.07,5.71-.19,8.61-.84,5.02-1.12,10.06-2.08,14.78-4.2.7-.32,1.39-.79,2.12-.89,3.12-.45,6.14-1.27,8.73-3.06,3.01-2.09,6.93-2.05,9.79-4.07,2.99-2.11,6.68-2.63,9.5-4.9,2.36.97,2.95-2.63,5.17-2,3.99-2.04,8.37-3.28,12.33-5.2,4.58-2.23,9.92-2.83,13.88-6.37.31-.28.91-.48,1.31-.4,2.49.53,4.13-1.44,6.08-2.26,1.36-.58,2.69-1.43,4.14-2.07,2.83-1.25,5.93-2.7,7.83-4.97,1.76-2.11,3.61-4.15,5.5-6.14,1.34-1.41,2.49-2.87,3.05-4.75.09-.29.3-.54.31-.54,1.34-.63,2.45-1.16,3.57-1.68.12-.45.11-.99.38-1.34,2.32-3.05,4.51-6.23,7.11-9.03,1.99-2.14,3.61-4.31,3.99-7.55.34.63.48.9.65,1.17,4.23,6.86,7.47,14.23,11.02,21.43,2.93,5.95,5.53,12.08,7.8,18.26,1.7,4.63,3.66,9.47,3.2,14.69-.04.47,0,1,.18,1.42,1.51,3.44,2.01,7.02,1.83,10.75-.11,2.16.05,4.33-.05,6.5-.04.99-.41,1.96-.63,2.92.21.25.41.49.54.65-.37.54-.72,1.05-1.01,1.48.51.87.9,1.53,1.17,1.99-.25.34-.49.66-.73.99,5.72-4.59,10.32-10.48,12.91-17.26Z"/>
  </g>
</svg>