<?xml version="1.0" encoding="UTF-8"?>
<svg id="Layer_2" data-name="Layer 2" xmlns="http://www.w3.org/2000/svg" viewBox="0 0 353.2 398.34">
  <g id="Layer_1-2" data-name="Layer 1">
    <path d="m265.41,369.48s.03-.04.04-.06c-.07-1.24-.38-2.17-.13-2.9,2.16-6.26,4.51-12.45,6.6-18.72.74-2.22.95-4.62,1.49-7.43.55-.55,1.13-1.13,1.74-1.74v-2.95c.69-.73,1.37-1.44,2.18-2.3-.26-.52-.54-1.07-.93-1.85,1.19-3.14,2.99-6.45,3.63-9.97.68-3.77,1.78-7.53,1.65-11.43,0-.12-.22-.24-.34-.35.67-1.33,1.35-2.66,2-3.94-.49-.52-.82-.88-1.06-1.14.76-1.01,1.52-2.01,2.59-3.42,1.06-.29,2.69-1.06,4.35-1.11,4.97-.15,9.45-2.02,13.99-3.64,3.52-1.25,6.92-2.85,9.73-5.42,1.68.35.89-1.42,1.63-1.89,4.06-2.61,6.82-6.78,11.08-9.17.7-.39.88-1.62,1.47-2.33.59-.71,1.39-1.25,2.6-2.3.15.89.36,1.53.44,2.04,2.1-4.09,4.09-8.22,6.05-12.37-.32.23-.8.42-1.55.72.85-1.16,1.41-1.93,2.21-3.03-.02.44-.04.77-.07,1.06,3.45-7.3,6.85-14.63,10.62-21.88-.34.19-.77.42-1.33.77.61-1.5.92-2.27,1.21-2.98-.44-.48-.76-.84-1.08-1.2,3.7-3.73,3.36-3.81,5.19-11.04,1.16-4.57,1.9-9.06,1.79-13.75-.08-3.33-.06-6.67,0-10,.07-4.35-.94-8.55-2.15-12.63-.51-1.74-.84-3.37-.86-5.13-.02-1.49,0-2.99,0-4.43-.64-.64-1.23-1.23-1.75-1.75-.27-1.64-.39-3.24-.81-4.76-.44-1.63-1.14-3.19-1.74-4.78-.22-.58-.72-1.17-.66-1.7.25-2.23-.59-4.03-1.8-5.78-1.15-1.66-1.38-3.72-2.37-5.53-2.15-3.91-4.98-7.47-6.2-11.93-.77-2.81-.72-5.91-2.63-8.41-.32-.42-.05-1.3-.05-1.97v-3.48c-.89-2.32-1.85-3.74-1.92-5.2-.17-3.72-.8-7.2-3.06-10.26-.45-.61-1.02-1.41-.96-2.07.22-2.27-1.25-3.83-2.03-5.69-1.92-4.63-5.27-8.43-7.3-12.98-.82-1.84-2.28-3.57-2.57-5.39-.34-2.14-1.24-3.84-2.14-5.66-.55-1.1-.87-2.31-1.51-4.09-4.29-3.22-4.64-10.4-10.44-13.67-.37-.88-.6-2.22-1.36-3.11-1.93-2.27-4.09-4.34-6.16-6.5-1.16.1-2.28-.03-2.82-.65-2.14-2.52-4.97-3.87-7.89-5.17-1.27-.57-2.34-1.58-3.6-2.19-3.48-1.68-6.39-4.47-10.29-5.32-3.04-.66-5.64-2.05-7.38-4.42q-5.96-.96-9.45-3.68c-1.68-.77-3.35-1.54-5.23-2.41-2.59.61-5.28-.23-7.68-1.37-2.56-1.22-5.55.63-7.42-1.61-.85.55-1.38.88-1.4.9-1.76-.46-3.24-.44-4.04-1.16-.99-.91-1.95.55-3.07-.56-.75-.75-3.08.32-4.3-.27-1.33-.65-2.18-.33-3.23.12-1.1-.61-2.19-1.21-3.6-2-3.93,0-8.26-.14-12.57.06-2.16.1-4.65.3-6.36,1.42-2.24,1.46-4.48,1.49-6.7,1.52-2.69,2.38-6.31,2.13-9.08,3.93-.71.46-2.16-.28-2.91.15-1.19.69-1.73-2.11-2.82-.32-.59-.43-1.12-1.03-1.78-1.27-2.44-.88-3.59-3.35-5.63-4.54-2.62-1.52-4.55-3.31-4.93-6.61-2.96-.3-5.02-1.9-7.25-3.47-2.45-1.72-5.33-3.42-8.37-3.75-2.42-.26-4.62-.9-6.83-1.71-1.61-.59-3.1-.88-4.37.48-.55-.3-1.17-.94-1.62-.84-2.22.51-4.2-.57-6.05-1.19-3.2-1.07-6.49-1.36-9.73-1.77-5.48-.69-11.04-.76-16.57-1.09-.33-.02-.68.06-1-.01-6.5-1.36-7.97-1.33-14.68-.02-1.21.24-2.57-.22-3.54.93-3.35-1.15-6.69-2.3-10.73-3.69-2.38,1.17-5.6-2.74-8.6-.27-2.38-.98-4.6-1.89-6.75-2.77-.35.35-.59.59-1.01,1.01-.61-.78-1.22-1.56-1.57-1.99-4.6-.74-8.94.84-13.02-1.16-.4-.2-1.03-.15-1.48,0-3.83,1.2-7.7,2.31-11.45,3.74-3.23,1.23-6.18,1.83-9.61.34-2.94-1.28-6.33-1.39-9.24-3.04C3.95.49,2.44.41,1.07.13c-.24-.05-.54.26-1.07.53.34.67.69,1.34,1.01,1.96-.24.46-.75.99-.8,1.55C-.05,7.7,2.77,12.93,5.8,15.28c2.56,1.98,4.91,4.24,7.39,6.33,1.84,1.54,3.58,3.32,5.66,4.44,5.53,2.98,10.48,6.65,14.91,11.09,1.93,1.94,3.92,4.16,6.33,5.2,4.11,1.77,6.81,5.2,10.29,7.67,3.97,2.82,7.32,6.52,10.99,9.78,3.84,3.41,7.58,6.96,11.87,9.79,2.1,1.39,4.21,2.79,6.3,4.15,2.89,1.88,4.99,4.84,8.54,5.88,2.94.86,5.27,2.89,7.36,5.19,1.05,1.15,2.5,1.94,3.79,2.86,1.02.73,2.13,1.36,3.11,2.14,2.02,1.61,3.78,3.65,6,4.86,5.15,2.82,8.94,7.25,13.49,10.78,4.38,3.4,7.84,7.89,12.33,11.29,3.1,2.34,5.4,5.69,8.84,7.7,3.34,1.96,5.73,5.07,9.01,7.17,2.33,1.5,4.7,3.58,5.95,5.97,3.44,6.59,8.09,12.52,10.5,19.51,2.02-.05,3.27,1.5,3.56,2.54.94,3.42,3.64,5.21,5.36,7.17,5.16.91,7.7,5.21,11.8,6.81.84,2.88,3.65,4.11,5.29,6.31,1.7,2.28,3.33,4.61,4.95,6.95.53.76.8,1.77,1.45,2.38,3.91,3.68,6.97,8.05,10.32,12.21,4.5,5.6,8.62,11.47,13.01,17.13,2.82,3.63,5.35,7.49,7.81,11.31,2.33,3.61,4.91,7.14,6.78,11.14,1.75,3.76,4.76,6.91,5.92,11.06.28,1.02.97,1.93,1.47,2.88-.48,5.53,2.01,10.17,4.93,14.44,3.46,5.05,6.9,10.14,11.82,14.09,4,3.21,6.36,7.92,9.03,11.82.95,6.38-.46,12.35-.78,18.38-.02.32.05.69-.08.97-2.53,5.4-2.34,11.55-4.85,16.99-1.22,2.64-1.79,5.6-2.54,8.44-.79,3-2.49,5.63-2.95,8.81-.41,2.86-1.65,5.62-2.6,8.4-.95,2.77-2.01,5.5-2.98,8.26-1.03,2.91-1.94,5.86-3.02,8.75-1.03,2.74-1.81,5.57-2.93,8.28-.53,1.28-.35,3.03-1.17,3.97-1.53,1.75-.88,3.93-1.66,5.85-.77,1.89-2.37,3.57-2.31,5.92,8.64-5.82,14.98-19.35,21.33-28.86Zm78.69-122.63v1.08h-1.72c-.1-.15-.21-.29-.31-.43.75-.24,1.51-.48,2.04-.65Zm-18.53-5.83c1.48-2.45,2.8-4.66,4.15-6.89.66.66,1.24,1.24,1.9,1.9.33-.27.67-.55,1.01-.83.57,1.31,1.15,2.66,1.9,4.39.58-1.57.96-2.62,1.77-4.81.94,2.88,1.49,4.58,2.05,6.32.42-.22.9-.58,1.4-.96,1.25,1.66-.4,2.06-1.4,3.31-.1-1.11-.16-1.72-.19-2.11-.48-.24-.98-.24-1.79-.24-.08.74-.15,1.51-.27,2.66-.65.5-1.55,1.21-2.53,1.97-1.47-1.74-3.11-.08-5.3.73.23-1.33.39-2.23.6-3.47-.98.38-1.91.74-3.1,1.21-.64-.49-1.37-1.05-2.78-2.12,1.65-.68,2.28-.94,2.58-1.06Zm-6.69-9.02c.13.61.24,1.16.6,2.84-1.26-1.22-1.77-1.73-2.54-2.47.84-.16,1.28-.24,1.94-.37Zm-6.53,1.31c.16-.12.33-.24.49-.36.31.69.61,1.37.8,1.79-.11.21-.46.86-1.29,2.41v-3.84Zm-27.7,3.09c-.48-.78-.87-1.39-1.33-2.13,1.27-.22,2.47-.53,1.33,2.13Zm2.01,41.7c-.45-.95-.88-1.84-1.7-3.55,1.6.89,2.46,1.37,3.4,1.9-.63.61-1.08,1.05-1.7,1.65Zm3.44-3.49c-.53-.35-1.14-.76-1.94-1.28.63-.12,1.07-.2,1.94-.36v1.64Zm10.56,10.82c-.38-1.98-2.41-3.17-1.34-4.85h2.83c-.44,1.43-.91,2.97-1.49,4.85Zm-3.89-48.57c.85-.68,1.33-1.07,2.14-1.73.24.5.56,1.18.82,1.73h-2.96Zm3.37,40.06c.07-1.06.13-1.94.23-3.26.75.89,1.15,1.37,1.82,2.16-.51.27-1.16.62-2.04,1.09Zm4.87,6.84c-.9-1.84-1.45-2.96-2.14-4.37.88-.13,1.43-.21,2.14-.32v4.69Zm-.74-55.3c-.47,1.17-.93,2.34-1.48,3.7-.54-.11-1.1-.22-1.74-.34.94-1.37,1.75-2.54,2.56-3.71l.66.35Zm-3.7-21.42c.69.67,1.16,1.12,1.82,1.77-.49.74-.99,1.51-1.54,2.35-.45-.38-.79-.67-1.13-.97-.39.28-.8.57-1.38.98-.57-2.53,1.8-2.64,2.23-4.13Zm-9.34,9.22c2.44-.6,5.05-1.24,7.67-1.88.19.52.4,1.1.62,1.7.56-.39,1.05-.73,1.38-.96,1.03,0,2.38,2.22,2.23,3.82-.15,1.54-.7,3.04-1.13,4.78-.8.86-3.17.6-2.74,3.15.85.14,1.76.3,2.69.45-.8.91-1.59,1.79-2.37,2.68-.25-.22-.59-.53-1.14-1.03-.17,1.09-.32,2.01-.46,2.92l-.45.05c-.19-1.22-.39-2.45-.57-3.63-.55-.14-1.01-.26-1.63-.42v-4.13c-.64-.64-1.11-1.11-1.9-1.9-.14,1.81-.27,3.35-.4,4.98-.95.18-1.17-.78-1.81-1.16v-9.43Zm-2.29,4.1c-1.24.48.17,3.32-2.77,2.54.07-1.8.88-2.65,2.77-2.54Zm-2.79,8.22c-.23-.23-.48-.46-.7-.71-.08-.09-.12-.23-.23-.46.47-.13.91-.25,1.72-.48.12,1.21.23,2.27.38,3.78,2.05,1.12,2.06,4.63,5.49,5.56.22-1.41.42-2.73.69-4.49,1.1.7,1.95,1.24,2.88,1.83-.87,1.87-1.56,3.58-2.43,5.19-.76,1.41-3.02,1.29-3.6,3.15v-2.56c-.97-.25-1.42-.36-2.14-.55.36-.5.66-.94.97-1.37q-1.76-3.9-5.94-5.81c.64-1.36,1.59-2.37,2.9-3.1Zm-5.93,20.09c.73-1.48,1.59-2.9,2.81-5.06v5.05c-.72.38-1.61.84-2.64,1.38-.07-.5-.33-1.04-.17-1.37ZM156.52,30.71c1.25-.5,1.97-.78,2.71-1.08.13.24.61,1.1,1.68,3.03-1.95-.87-2.81-1.25-4.39-1.95Z"/>
  </g>
</svg>